<?xml version="1.0" encoding="UTF-8"?>
<svg id="Layer_1" data-name="Layer 1" xmlns="http://www.w3.org/2000/svg" version="1.1" viewBox="0 0 512 512">
  <defs>
    <style>
      .cls-1 {
        fill: #111;
      }

      .cls-1, .cls-2 {
        stroke-width: 0px;
      }

      .cls-2 {
        fill: #fff;
      }
    </style>
  </defs>
  <rect class="cls-1" width="512" height="512" rx="96" ry="96"/>
  <g>
    <path class="cls-2" d="M290.2,418.8l-42.7-12.3v-86.9h-8.4c1.5-1.3,3-2.6,4.3-4,6.1-6.3,10.9-13.7,14.4-22.4s5.2-18.3,5.2-28.7-1.7-19-5.2-27.1c-3.5-8.1-8.3-15-14.5-20.8-6.2-5.8-13.6-10.3-22.2-13.4-8.6-3.2-18-4.7-28.2-4.7s-21.8,2.1-30.8,6.3c-9,4.2-16.6,9.9-22.7,17.1-6.4-7.2-14.2-12.9-23.4-17.1-9.2-4.2-19.5-6.3-30.7-6.3s-20.1,1.8-28.7,5.3c-8.7,3.5-16.2,8.4-22.4,14.6-6.3,6.2-11.1,13.6-14.6,22-3.5,8.5-5.2,17.7-5.2,27.7s.8,13.3,2.4,19.7c1.6,6.4,3.8,12.4,6.6,18.1,2.9,5.7,6.2,11,10.1,15.8,3.9,4.9,8.1,9.2,12.7,12.9l22.4-24.3c-2.3-2.3-4.6-4.9-6.9-7.7-2.3-2.9-4.4-6-6.2-9.5-1.8-3.5-3.3-7.3-4.5-11.4-1.2-4.1-1.7-8.6-1.7-13.5s.7-9.4,2.2-14.1c1.4-4.7,3.7-8.9,6.6-12.7,3-3.8,6.7-6.9,11.2-9.2,4.5-2.3,9.9-3.5,16.1-3.5s11.6,1.2,16.1,3.5c4.5,2.3,8.3,5.4,11.2,9.2,3,3.8,5.2,8,6.6,12.7,1.4,4.7,2.2,9.4,2.2,14.1s-.6,9.3-1.7,13.5c-1.1,4.1-2.6,7.9-4.5,11.4-1.8,3.5-3.9,6.7-6.2,9.5-2.3,2.9-4.6,5.4-6.9,7.7l22.4,24.3c4.6-3.7,8.8-8,12.7-12.9,3.9-4.9,7.2-10.1,10.1-15.8,2.9-5.7,5.1-11.8,6.6-18.1,1.6-6.4,2.4-12.9,2.4-19.7s0-3.2-.2-4.8c-.1-1.6-.3-3.1-.4-4.7.9-4.1,2.3-7.9,4.4-11.6,2.1-3.6,4.7-6.8,7.8-9.5,3.1-2.7,6.8-4.9,11-6.5,4.2-1.6,8.9-2.4,14.1-2.4s11.5,1,16,3c4.4,2,8.1,4.7,10.9,8,2.9,3.3,5,7.2,6.3,11.5,1.4,4.3,2,8.8,2,13.4s-.9,11.8-2.7,16.8c-1.8,5-4.2,9.2-7.3,12.8-3.1,3.5-6.8,6.2-10.9,8.1-4.2,1.9-8.6,2.8-13.3,2.8s-4-.2-5.9-.5c-1.9-.3-3.6-.7-5.2-1.2-1.8-.5-3.5-1.1-5.1-1.8l-9.6,28c2,1.1,4.4,2.1,7.2,2.9,2.2.7,4.9,1.3,8.1,1.9,3.2.6,6.8.9,10.7.9,7,0,13.6-.9,19.8-2.6v94.7l110.1,34.1V201.2h-33.7v217.6Z"/>
    <path class="cls-2" d="M495.6,246c-1.6-6.4-3.8-12.4-6.6-18.1-2.9-5.7-6.2-11-10.1-15.8-3.9-4.9-8.1-9.2-12.7-12.9l-22.4,24.3c2.3,2.3,4.6,4.9,6.9,7.7,2.3,2.9,4.4,6,6.2,9.5,1.8,3.5,3.3,7.3,4.5,11.4,1.1,4.1,1.7,8.6,1.7,13.5s-.7,9.4-2.2,14.1c-1.5,4.7-3.7,8.9-6.6,12.7-3,3.8-6.7,6.9-11.2,9.2-4.5,2.3-9.9,3.5-16.1,3.5s-11.6-1.2-16.1-3.5c-4.5-2.3-8.3-5.4-11.2-9.2-3-3.8-5.2-8-6.6-12.7-1.4-4.7-2.2-9.4-2.2-14.1s.6-9.3,1.7-13.5c1.2-4.1,2.6-7.9,4.5-11.4,1.8-3.5,3.9-6.7,6.2-9.5,2.3-2.9,4.6-5.4,6.9-7.7l-22.4-24.3c-4.6,3.7-8.8,8-12.7,12.9-3.9,4.9-7.2,10.1-10.1,15.8-2.9,5.7-5.1,11.8-6.6,18.1-1.6,6.4-2.4,12.9-2.4,19.7,0,10,1.8,19.2,5.3,27.7,3.5,8.5,8.5,15.8,14.8,22,6.3,6.2,13.9,11.1,22.6,14.6,8.7,3.5,18.1,5.3,28.4,5.3s20.1-1.8,28.8-5.3,16.2-8.4,22.4-14.6c6.3-6.2,11.1-13.6,14.6-22,3.5-8.5,5.2-17.7,5.2-27.7s-.8-13.3-2.4-19.7Z"/>
    <path class="cls-2" d="M405.8,172.7c5.2,4.9,11.4,8.9,18.5,12.1,7.1,3.2,14.7,5.8,22.9,7.8l8.4-25.6c-11.5-3-20.4-7.3-26.7-12.9-6.3-5.6-9.5-12.7-9.5-21.3s.5-7.5,1.6-11.2c1.1-3.7,2.8-7.1,5.1-10.2,2.3-3,5.4-5.5,9.2-7.3,3.8-1.9,8.4-2.8,13.9-2.8s6.8.4,9.5,1.3c2.8.9,5.2,2,7.3,3.3,2.1,1.3,3.9,2.7,5.3,4.3,1.4,1.5,2.6,2.9,3.5,4.2l20.4-16.6c-2.1-2.8-4.5-5.6-7.2-8.3-2.6-2.7-5.8-5.2-9.4-7.3-3.6-2.1-7.8-3.8-12.7-5.1-4.8-1.3-10.4-1.9-16.8-1.9s-17.1,1.5-24.5,4.4c-7.4,2.9-13.7,7-19,12.1-5.3,5.2-9.4,11.2-12.3,18.3-2.9,7-4.3,14.6-4.3,22.8s1.5,16.2,4.5,22.7c3,6.6,7.1,12.3,12.3,17.1Z"/>
  </g>
</svg>